<?xml version="1.0" encoding="UTF-8"?>
<svg version="1.1" xmlns="http://www.w3.org/2000/svg" width="512" height="512">
<path d="M0 0 C1.05026367 -0.0038269 2.10052734 -0.00765381 3.18261719 -0.01159668 C5.40170247 -0.01431696 7.62081974 -0.00694777 9.83984375 0.00976562 C13.23770595 0.03117255 16.63345361 0.00996675 20.03125 -0.015625 C22.18750467 -0.01298175 24.34375802 -0.00785682 26.5 0 C27.51674805 -0.00809692 28.53349609 -0.01619385 29.58105469 -0.02453613 C36.55627155 0.06825726 36.55627155 0.06825726 39.921875 2.31445312 C41.25 4.53125 41.25 4.53125 41.25 8.53125 C42.37277344 8.47324219 43.49554688 8.41523437 44.65234375 8.35546875 C60.85516702 7.76199851 60.85516702 7.76199851 67.25 13.53125 C73.1328869 19.75943678 75.27373548 25.95689632 76.1015625 34.4609375 C76.23046875 35.75 76.359375 37.0390625 76.4921875 38.3671875 C76.61994238 39.71352737 76.74754467 41.05988174 76.875 42.40625 C77.00978225 43.77610424 77.14519295 45.14589679 77.28125 46.515625 C77.61034737 49.85361257 77.93304353 53.19209139 78.25 56.53125 C78.886113 56.51844435 79.52222601 56.50563869 80.17761517 56.49244499 C142.80660681 55.25862523 205.4424187 55.40012065 268.07998848 55.58133316 C271.22625849 55.59039078 274.37252861 55.59941283 277.51879883 55.60839844 C278.29955909 55.61064012 279.08031936 55.61288181 279.88473903 55.61519143 C292.72400495 55.6515316 305.56320968 55.66637601 318.40252171 55.67315592 C331.74482819 55.68054736 345.0869952 55.7065906 358.42923039 55.75110424 C365.85912416 55.77543431 373.28883754 55.79175783 380.7187748 55.78683853 C387.63995907 55.78230404 394.5606649 55.80297259 401.48174477 55.84101677 C404.01540266 55.85086498 406.54911009 55.8521896 409.08277512 55.84438896 C412.5362635 55.83504411 415.98825617 55.85629508 419.44160461 55.88528442 C420.94411072 55.87029772 420.94411072 55.87029772 422.47697049 55.85500824 C429.03505964 55.95428407 432.32463717 57.14411009 437.25 61.53125 C442.92751268 69.22336395 440.18354512 80.14199011 438.86800539 88.98224998 C438.49308455 91.43709516 438.11029364 93.89064143 437.72729492 96.34423828 C437.45562 98.12423454 437.18464834 99.90433825 436.9143219 101.68453979 C436.18216535 106.49132799 435.43965998 111.29646313 434.69478011 116.10129404 C433.91441647 121.14381637 433.14222385 126.18759109 432.36872864 131.23117065 C431.06903613 139.69686285 429.76245319 148.16147043 428.4519043 156.62548828 C426.93916329 166.39599797 425.4380554 176.16824227 423.94300383 185.94147313 C422.50112012 195.3649487 421.05032562 204.78703261 419.59572792 214.20855331 C418.97834747 218.20865673 418.36418787 222.20923476 417.75267601 226.21023941 C417.03179688 230.9244351 416.30313292 235.63736413 415.56856346 240.34944534 C415.30101115 242.07391278 415.03611056 243.79879414 414.77412796 245.52411652 C411.09666057 269.71191745 411.09666057 269.71191745 403.25 276.53125 C394.92743505 282.20024351 385.42667169 281.67778288 375.72610474 281.63659668 C374.60148417 281.63579259 373.47686361 281.6349885 372.31816363 281.63416004 C368.61458955 281.63018318 364.91107736 281.61890231 361.20751953 281.60742188 C358.59098432 281.60286248 355.97444844 281.59867476 353.35791206 281.594841 C345.32191377 281.58168936 337.28596608 281.55703817 329.25 281.53125 C326.86819211 281.52411555 324.48638415 281.51700402 322.10457611 281.50991821 C307.24673079 281.46421443 292.38899528 281.39941445 277.53124762 281.32932091 C271.32423166 281.30033135 265.11720884 281.27288248 258.91018677 281.24523926 C247.26380182 281.19315324 235.61742323 281.13977044 223.97104657 281.0858674 C214.66364296 281.04283689 205.35623669 281.00043784 196.04882812 280.95849609 C195.38601809 280.9555091 194.72320806 280.9525221 194.04031287 280.94944459 C190.71262553 280.93445154 187.38493815 280.91946987 184.05725074 280.90449238 C156.78815955 280.78172492 129.51907698 280.65713081 102.25 280.53125 C102.56108374 282.43512778 102.87392681 284.33871815 103.1875 286.2421875 C103.36152344 287.30228027 103.53554687 288.36237305 103.71484375 289.45458984 C104.67372419 296.6032464 104.67372419 296.6032464 108.25 302.53125 C111.3611422 303.60170436 114.28514036 303.65702823 117.55678558 303.65874195 C118.63865222 303.6617496 119.72051885 303.66475725 120.83516932 303.66785604 C122.02309249 303.66610567 123.21101567 303.66435529 124.43493652 303.66255188 C126.3285562 303.66572545 126.3285562 303.66572545 128.26043081 303.66896313 C131.03429051 303.67355997 133.8081279 303.67498103 136.5819912 303.67399788 C141.09501905 303.67240526 145.60802475 303.67760679 150.12104797 303.68362427 C156.67276503 303.69173745 163.22447819 303.69668109 169.77619934 303.69991493 C180.12795655 303.70540988 190.47968079 303.72230492 200.8314209 303.74125671 C204.37204737 303.74761337 207.91267393 303.75392178 211.45330048 303.76023388 C212.33812454 303.76181764 213.22294861 303.7634014 214.13458553 303.76503316 C224.20674606 303.78297003 234.27890892 303.79919717 244.35107422 303.81420898 C245.27186294 303.81558486 246.19265165 303.81696073 247.14134306 303.81837829 C262.07282775 303.84032242 277.00430396 303.85106812 291.93580192 303.85857973 C307.25895417 303.86664387 322.58203356 303.88990993 337.90514421 303.9265334 C347.36088434 303.94858558 356.81647478 303.95821479 366.27223933 303.95203307 C372.74838638 303.94886438 379.22440535 303.96014937 385.70051277 303.98292748 C389.43976947 303.99562514 393.17874091 304.00172938 396.9180088 303.99051094 C400.96728387 303.97851814 405.01582966 303.99719979 409.06506348 304.01899719 C410.25298666 304.01055466 411.44090983 304.00211212 412.66483068 303.99341375 C413.74669732 304.00424464 414.82856395 304.01507553 415.94321442 304.02623463 C417.34568664 304.02769984 417.34568664 304.02769984 418.77649164 304.02919465 C422.00113544 304.68371019 423.2032293 306.01305342 425.25 308.53125 C425.78125 310.53125 425.78125 310.53125 425.75 312.53125 C425.7603125 313.19125 425.770625 313.85125 425.78125 314.53125 C424.96371581 317.60902577 423.8173347 318.61674346 421.25 320.53125 C418.0651129 321.15440562 414.90963661 321.13619538 411.671875 321.140625 C410.7453009 321.15716125 409.81872681 321.17369751 408.86407471 321.19073486 C405.909316 321.23925726 402.95507211 321.26059524 400 321.28125 C397.99476571 321.30940613 395.98955544 321.33933305 393.984375 321.37109375 C389.0726789 321.44834725 384.16261439 321.48882673 379.25 321.53125 C375.62 328.79125 371.99 336.05125 368.25 343.53125 C369.9 345.18125 371.55 346.83125 373.25 348.53125 C380.20634362 355.95241842 383.63172214 362.7890772 383.4609375 373.0703125 C382.78380968 380.97013708 379.98304034 387.97662378 374.25 393.53125 C365.01656978 400.13272114 356.41751558 401.83808693 345.25 400.53125 C339.11485484 398.66907118 334.36162142 395.4651957 330.25 390.53125 C329.80914062 390.00660156 329.36828125 389.48195313 328.9140625 388.94140625 C323.70904508 382.30726555 322.33033999 374.8506359 323.25 366.53125 C325.480179 356.69892799 330.65004148 350.83516611 338.25 344.53125 C336.79237887 341.44757949 335.33377822 338.36437328 333.875 335.28125 C333.4625 334.40855469 333.05 333.53585937 332.625 332.63671875 C332.22539062 331.79238281 331.82578125 330.94804687 331.4140625 330.078125 C331.04748535 329.30307617 330.6809082 328.52802734 330.30322266 327.72949219 C329.30806453 325.65243985 328.27999865 323.5912473 327.25 321.53125 C278.41 321.53125 229.57 321.53125 179.25 321.53125 C175.62 328.79125 171.99 336.05125 168.25 343.53125 C169.9 345.18125 171.55 346.83125 173.25 348.53125 C180.20634362 355.95241842 183.63172214 362.7890772 183.4609375 373.0703125 C182.78380968 380.97013708 179.98304034 387.97662378 174.25 393.53125 C165.01656978 400.13272114 156.41751558 401.83808693 145.25 400.53125 C139.11485484 398.66907118 134.36162142 395.4651957 130.25 390.53125 C129.80914062 390.00660156 129.36828125 389.48195313 128.9140625 388.94140625 C123.70904508 382.30726555 122.33033999 374.8506359 123.25 366.53125 C125.480179 356.69892799 130.65004148 350.83516611 138.25 344.53125 C136.79237887 341.44757949 135.33377822 338.36437328 133.875 335.28125 C133.25625 333.97220703 133.25625 333.97220703 132.625 332.63671875 C132.22539062 331.79238281 131.82578125 330.94804687 131.4140625 330.078125 C131.04748535 329.30307617 130.6809082 328.52802734 130.30322266 327.72949219 C129.30768996 325.65165807 128.28691854 323.5886931 127.25 321.53125 C126.59515625 321.5219043 125.9403125 321.51255859 125.265625 321.50292969 C122.25969095 321.4487974 119.25524225 321.36523611 116.25 321.28125 C115.22003906 321.26707031 114.19007813 321.25289063 113.12890625 321.23828125 C105.6005439 320.99852449 100.12627769 319.72975026 94.26171875 314.890625 C93.82472656 314.35953125 93.38773437 313.8284375 92.9375 313.28125 C92.48761719 312.76046875 92.03773438 312.2396875 91.57421875 311.703125 C86.81117003 303.89116308 86.27778938 295.2894973 85.35522461 286.40625 C85.187494 284.86695567 85.01882469 283.32776338 84.84929848 281.78866577 C84.38930634 277.58861366 83.94226499 273.38727047 83.4973309 269.18560028 C83.01779322 264.67969276 82.52595398 260.17512761 82.03538513 255.67041016 C81.19645385 247.95313707 80.3645563 240.23513366 79.53729248 232.51660156 C78.26316113 220.63205502 76.97150941 208.74944953 75.67626953 196.8671875 C75.24217873 192.88290038 74.80818134 188.89860308 74.37417603 184.91430664 C74.26638978 183.9249326 74.15860353 182.93555857 74.04755104 181.9162035 C72.95475824 171.88422938 71.86460052 161.85196955 70.77511859 151.81963539 C70.44761514 148.80399961 70.12001084 145.7883748 69.79239845 142.77275085 C68.67632642 132.49768629 67.56234893 122.22239887 66.45141602 111.94677734 C65.45562597 102.73636903 64.45627438 93.5263548 63.45280308 84.31678009 C62.92928618 79.5107679 62.40753836 74.70457954 61.89029121 69.89788818 C61.4110439 65.4444216 60.92712193 60.99148799 60.43960381 56.53891945 C60.26289778 54.91736526 60.08790182 53.29562361 59.91479492 51.67368126 C59.46152628 38.11567708 59.46152628 38.11567708 54.25 26.53125 C52.05708918 26.07462847 49.84414111 25.710838 47.625 25.40625 C46.43648437 25.23867187 45.24796875 25.07109375 44.0234375 24.8984375 C43.10820313 24.77726562 42.19296875 24.65609375 41.25 24.53125 C41.146875 25.48 41.04375 26.42875 40.9375 27.40625 C40.25 30.53125 40.25 30.53125 37.25 32.53125 C35.09388733 32.79867554 35.09388733 32.79867554 32.56665039 32.82177734 C31.61879166 32.83453705 30.67093292 32.84729675 29.6943512 32.86044312 C28.1614872 32.86378159 28.1614872 32.86378159 26.59765625 32.8671875 C25.54597763 32.8738443 24.49429901 32.8805011 23.41075134 32.88735962 C21.18571727 32.89748846 18.96065281 32.90217657 16.7355957 32.90185547 C13.32908165 32.90622871 9.92386287 32.94254727 6.51757812 32.98046875 C4.35677527 32.98633677 2.19596625 32.99030626 0.03515625 32.9921875 C-0.98472885 33.00655853 -2.00461395 33.02092957 -3.05540466 33.03573608 C-10.03008129 32.99060832 -10.03008129 32.99060832 -13.39086914 30.84619141 C-15.03932514 28.03845657 -15.26596444 26.28052254 -15.28125 23.03125 C-15.28640625 21.979375 -15.2915625 20.9275 -15.296875 19.84375 C-15.28140625 18.750625 -15.2659375 17.6575 -15.25 16.53125 C-15.26546875 15.438125 -15.2809375 14.345 -15.296875 13.21875 C-15.28914063 11.6409375 -15.28914063 11.6409375 -15.28125 10.03125 C-15.27673828 9.0721875 -15.27222656 8.113125 -15.26757812 7.125 C-14.75 4.53125 -14.75 4.53125 -13.38867188 2.22070312 C-9.16335839 -0.48462342 -4.9133696 -0.03912786 0 0 Z M80.25 72.53125 C80.13422455 79.06387994 80.55085104 85.33564068 81.34375 91.81640625 C81.44204102 92.65264526 81.54033203 93.48888428 81.64160156 94.35046387 C82.00536477 97.43223775 82.37819542 100.51293593 82.75 103.59375 C83.575 110.503125 84.4 117.4125 85.25 124.53125 C107.03 124.53125 128.81 124.53125 151.25 124.53125 C150.50566445 111.90777549 150.50566445 111.90777549 149.3125 99.34765625 C149.22750244 98.59580551 149.14250488 97.84395477 149.05493164 97.06932068 C148.87879765 95.52116314 148.70068157 93.97322971 148.52050781 92.42553711 C148.24424523 90.04414371 147.97730304 87.66181558 147.7109375 85.27929688 C147.53700294 83.76035421 147.36254489 82.24147137 147.1875 80.72265625 C147.10830322 80.01242813 147.02910645 79.30220001 146.94750977 78.57044983 C146.79790927 75.26337725 146.79790927 75.26337725 145.25 72.53125 C143.22505769 72.43715521 141.1968013 72.41381878 139.16967773 72.41772461 C137.86840439 72.41780014 136.56713104 72.41787567 135.22642517 72.41795349 C133.79548098 72.42306091 132.36453718 72.42827692 130.93359375 72.43359375 C129.4777074 72.43545797 128.02182043 72.43688185 126.56593323 72.43788147 C122.72720621 72.44170635 118.88851681 72.45153636 115.04980469 72.46258545 C111.13542184 72.47280022 107.22103294 72.47737923 103.30664062 72.48242188 C95.62107657 72.49315866 87.93554355 72.51023471 80.25 72.53125 Z M163.25 72.53125 C163.94993103 85.60146954 163.94993103 85.60146954 165.1875 98.59375 C165.27249756 99.32198975 165.35749512 100.05022949 165.44506836 100.80053711 C165.62080784 102.29569442 165.79890806 103.79057634 165.97949219 105.28515625 C166.25649142 107.58514991 166.52315598 109.88619998 166.7890625 112.1875 C166.96294507 113.65632075 167.13740074 115.1250738 167.3125 116.59375 C167.39169678 117.27896729 167.47089355 117.96418457 167.55249023 118.67016602 C167.72194613 121.88284804 167.72194613 121.88284804 169.25 124.53125 C171.74492388 124.62627416 174.21206014 124.65682566 176.70727539 124.64477539 C177.48770706 124.64492142 178.26813873 124.64506744 179.07221985 124.6452179 C181.6640598 124.64451858 184.25582878 124.63672536 186.84765625 124.62890625 C188.6398464 124.62704213 190.43203706 124.6256182 192.22422791 124.62461853 C196.95070797 124.62079284 201.67715752 124.61096212 206.40362549 124.59991455 C212.06955586 124.58790719 217.73549641 124.58329843 223.40143585 124.57746124 C232.01764516 124.56775039 240.63378743 124.5485942 249.25 124.53125 C249.25 107.37125 249.25 90.21125 249.25 72.53125 C220.87 72.53125 192.49 72.53125 163.25 72.53125 Z M265.25 72.53125 C265.25 89.69125 265.25 106.85125 265.25 124.53125 C278.02245872 124.56031457 278.02245872 124.56031457 290.79492188 124.58007812 C296.00090549 124.5860662 301.20687159 124.59316555 306.4128418 124.60668945 C310.60790258 124.61751959 314.80294459 124.6235271 318.99801826 124.62612724 C320.60206968 124.62798126 322.20612003 124.63160144 323.8101635 124.63698006 C326.04916515 124.64419219 328.2880883 124.64524087 330.52709961 124.64477539 C331.80395126 124.646996 333.08080292 124.64921661 334.39634705 124.65150452 C337.14888855 124.85793089 337.14888855 124.85793089 338.25 123.53125 C338.69739802 120.45708186 339.08820584 117.39400713 339.44140625 114.30859375 C339.55097153 113.37455215 339.6605368 112.44051056 339.77342224 111.47816467 C340.00499433 109.49358741 340.23434271 107.50874962 340.46166992 105.52368164 C340.80831312 102.50520823 341.16437669 99.48795417 341.52148438 96.47070312 C341.74536593 94.54173323 341.96869054 92.6126986 342.19140625 90.68359375 C342.29763809 89.78744858 342.40386993 88.89130341 342.51332092 87.96800232 C342.65863503 86.68241173 342.65863503 86.68241173 342.80688477 85.37084961 C342.89269302 84.62774033 342.97850128 83.88463104 343.06690979 83.1190033 C343.31602797 79.59802643 343.25 76.06102874 343.25 72.53125 C317.51 72.53125 291.77 72.53125 265.25 72.53125 Z M360.25 73.53125 C360.01176652 74.8708488 359.83187562 76.22092356 359.67749023 77.57275391 C359.52744789 78.86011948 359.52744789 78.86011948 359.37437439 80.17349243 C359.27016678 81.10881805 359.16595917 82.04414368 359.05859375 83.0078125 C358.94902847 83.96642181 358.8394632 84.92503113 358.72657776 85.91268921 C358.49502467 87.94854956 358.26567537 89.98466156 358.03833008 92.02099609 C357.69124223 95.12280688 357.33541421 98.22352333 356.97851562 101.32421875 C356.75467844 103.30202344 356.53135495 105.27988634 356.30859375 107.2578125 C356.20236191 108.18099274 356.09613007 109.10417297 355.98667908 110.05532837 C355.88980301 110.93248505 355.79292694 111.80964172 355.69311523 112.71337891 C355.60730698 113.47647369 355.52149872 114.23956848 355.43309021 115.02578735 C355.20212146 118.18643467 355.25 121.36217474 355.25 124.53125 C375.05 124.53125 394.85 124.53125 415.25 124.53125 C417.56409865 112.33414614 417.56409865 112.33414614 419.63671875 100.109375 C419.74345413 99.43122742 419.85018951 98.75307983 419.9601593 98.05438232 C420.17882716 96.66046677 420.39631165 95.266365 420.61254883 93.87207031 C420.94397772 91.73957069 421.28140162 89.60807091 421.61914062 87.4765625 C421.83368741 86.10422198 422.04789363 84.73182815 422.26171875 83.359375 C422.45209717 82.1415332 422.64247559 80.92369141 422.83862305 79.66894531 C423.33666366 76.39766491 423.33666366 76.39766491 423.25 72.53125 C415.18347826 72.50812263 407.11697028 72.49033291 399.05042362 72.47943783 C395.30516963 72.47420986 391.55993824 72.46711378 387.81469727 72.45581055 C384.20318313 72.44497859 380.59169079 72.43897251 376.98016167 72.43637276 C375.59939671 72.43451906 374.218633 72.43089951 372.83787727 72.42551994 C370.91024048 72.41830553 368.98258193 72.41784191 367.05493164 72.41772461 C365.95572891 72.415504 364.85652618 72.41328339 363.72401428 72.41099548 C361.3064853 72.25078367 361.3064853 72.25078367 360.25 73.53125 Z M87.25 141.53125 C88.3110555 154.08794004 89.3902594 166.6345127 90.8125 179.15625 C90.93818359 180.29835938 91.06386719 181.44046875 91.19335938 182.6171875 C91.7210114 187.32461706 92.31960732 191.87928659 93.25 196.53125 C115.36 196.53125 137.47 196.53125 160.25 196.53125 C159.280625 187.641875 158.31125 178.7525 157.3125 169.59375 C157.00836182 166.78367432 156.70422363 163.97359863 156.39086914 161.07836914 C156.14764611 158.8660099 155.9040978 156.65368638 155.66015625 154.44140625 C155.47350403 152.70014465 155.47350403 152.70014465 155.28308105 150.92370605 C155.1613855 149.82747925 155.03968994 148.73125244 154.91430664 147.60180664 C154.8099379 146.64472305 154.70556915 145.68763947 154.59803772 144.70155334 C154.47171938 142.55756184 154.47171938 142.55756184 153.25 141.53125 C151.19443339 141.43711313 149.13559819 141.41382002 147.07788086 141.41772461 C146.11205833 141.41750557 146.11205833 141.41750557 145.12672424 141.4172821 C142.98939697 141.41798115 140.85215587 141.42577309 138.71484375 141.43359375 C137.23653715 141.43545796 135.75822993 141.43688185 134.27992249 141.43788147 C130.38201198 141.44170641 126.48413851 141.45153648 122.58624268 141.46258545 C118.61153667 141.47280008 114.63682471 141.4773792 110.66210938 141.48242188 C102.858056 141.49315878 95.05403318 141.51023491 87.25 141.53125 Z M171.25 141.53125 C171.96058485 154.67369876 171.96058485 154.67369876 173.1875 167.7421875 C173.27249756 168.48787994 173.35749512 169.23357239 173.44506836 170.00186157 C173.62095955 171.53568044 173.79906629 173.06924701 173.97949219 174.60253906 C174.2555021 176.9531072 174.52270667 179.30457014 174.7890625 181.65625 C174.96303609 183.16412092 175.13749589 184.67193584 175.3125 186.1796875 C175.39169678 186.87645599 175.47089355 187.57322449 175.55249023 188.29110718 C175.89697675 191.1878393 176.32398674 193.75321022 177.25 196.53125 C201.01 196.53125 224.77 196.53125 249.25 196.53125 C249.25 178.38125 249.25 160.23125 249.25 141.53125 C223.51 141.53125 197.77 141.53125 171.25 141.53125 Z M265.25 141.53125 C265.25 159.68125 265.25 177.83125 265.25 196.53125 C286.37 196.53125 307.49 196.53125 329.25 196.53125 C330.96514294 186.27415431 330.96514294 186.27415431 332.3203125 175.984375 C332.40626678 175.24346619 332.49222107 174.50255737 332.58078003 173.73919678 C332.75869801 172.19691546 332.93505926 170.65445376 333.10986328 169.11181641 C333.37622585 166.77047467 333.65076333 164.43018277 333.92578125 162.08984375 C334.09945145 160.57557731 334.27264532 159.06125614 334.4453125 157.546875 C334.52653351 156.86022766 334.60775452 156.17358032 334.69143677 155.46612549 C335.2180507 150.73560386 335.25 146.35403654 335.25 141.53125 C312.15 141.53125 289.05 141.53125 265.25 141.53125 Z M353.25 141.53125 C351.66835182 149.16758904 351.66835182 149.16758904 350.56396484 156.79736328 C350.46269287 157.70977783 350.3614209 158.62219238 350.25708008 159.56225586 C350.15935303 160.48272705 350.06162598 161.40319824 349.9609375 162.3515625 C349.81652222 163.66338501 349.81652222 163.66338501 349.66918945 165.00170898 C349.31626775 168.21936013 348.97106652 171.43785434 348.625 174.65625 C347.84125 181.875 347.0575 189.09375 346.25 196.53125 C365.39 196.53125 384.53 196.53125 404.25 196.53125 C406.18646472 186.20343818 408.04791075 175.93333465 409.61254883 165.5546875 C409.94274894 163.37154623 410.28079693 161.18970486 410.61914062 159.0078125 C410.83380309 157.59642553 411.04801318 156.18496967 411.26171875 154.7734375 C411.45209717 153.5241748 411.64247559 152.27491211 411.83862305 150.98779297 C412.36817996 147.11841392 412.36817996 147.11841392 412.25 141.53125 C392.78 141.53125 373.31 141.53125 353.25 141.53125 Z M95.25 213.53125 C96.03829435 225.72929979 96.03829435 225.72929979 97.22265625 237.87109375 C97.30028198 238.56368286 97.37790771 239.25627197 97.45788574 239.96984863 C97.73906416 242.46990053 98.02607865 244.96929334 98.3125 247.46875 C98.951875 253.099375 99.59125 258.73 100.25 264.53125 C122.36 264.53125 144.47 264.53125 167.25 264.53125 C167.30871364 257.51121203 167.30871364 257.51121203 166.79101562 250.65405273 C166.63874512 249.37661194 166.63874512 249.37661194 166.48339844 248.07336426 C166.32145996 246.78214661 166.32145996 246.78214661 166.15625 245.46484375 C166.05795898 244.64826294 165.95966797 243.83168213 165.85839844 242.99035645 C165.49476915 239.98244293 165.12186071 236.97565698 164.75 233.96875 C163.925 227.224375 163.1 220.48 162.25 213.53125 C140.14 213.53125 118.03 213.53125 95.25 213.53125 Z M179.25 213.53125 C180.05280135 225.03046481 180.05280135 225.03046481 181.1875 236.484375 C181.27249756 237.23668396 181.35749512 237.98899292 181.44506836 238.76409912 C181.62173975 240.31995114 181.7998716 241.87563804 181.97949219 243.43115234 C182.254396 245.81944128 182.52192631 248.20848732 182.7890625 250.59765625 C182.96310498 252.12244574 183.13756778 253.64718733 183.3125 255.171875 C183.39169678 255.88321594 183.47089355 256.59455688 183.55249023 257.32745361 C183.96112467 261.04912533 183.96112467 261.04912533 185.25 264.53125 C206.37 264.53125 227.49 264.53125 249.25 264.53125 C249.25 247.70125 249.25 230.87125 249.25 213.53125 C226.15 213.53125 203.05 213.53125 179.25 213.53125 Z M265.25 213.53125 C265.25 230.36125 265.25 247.19125 265.25 264.53125 C283.73 264.53125 302.21 264.53125 321.25 264.53125 C322.32928049 262.37268903 322.54349736 260.84056862 322.82250977 258.45214844 C322.92253799 257.61077332 323.02256622 256.76939819 323.12562561 255.90252686 C323.22983322 254.99109924 323.33404083 254.07967163 323.44140625 253.140625 C323.55097153 252.203255 323.6605368 251.26588501 323.77342224 250.30010986 C324.00468894 248.31308075 324.23405152 246.32582924 324.46166992 244.33837891 C324.80954913 241.30696389 325.16506577 238.27651521 325.52148438 235.24609375 C325.74525343 233.31515762 325.96857513 231.38416959 326.19140625 229.453125 C326.29763809 228.54979431 326.40386993 227.64646362 326.51332092 226.71575928 C326.65863503 225.43478363 326.65863503 225.43478363 326.80688477 224.12792969 C326.89269302 223.38339539 326.97850128 222.63886108 327.06690979 221.87176514 C327.28378262 219.0993933 327.25 216.31209149 327.25 213.53125 C306.79 213.53125 286.33 213.53125 265.25 213.53125 Z M344.25 213.53125 C343.425 220.275625 342.6 227.02 341.75 233.96875 C341.35844727 237.13488892 341.35844727 237.13488892 340.95898438 240.36499023 C340.75348199 242.06489017 340.54837795 243.76483833 340.34375 245.46484375 C340.23579102 246.32565552 340.12783203 247.18646729 340.01660156 248.07336426 C339.35769111 253.60115234 339.15167979 258.96386802 339.25 264.53125 C345.99435205 264.58199705 352.73865477 264.6170034 359.4831543 264.64111328 C361.77711833 264.65116528 364.07106957 264.6648089 366.36499023 264.68212891 C369.66393188 264.70641209 372.96270397 264.71774123 376.26171875 264.7265625 C377.28585373 264.73688507 378.30998871 264.74720764 379.36515808 264.75784302 C380.80608574 264.75806961 380.80608574 264.75806961 382.27612305 264.75830078 C383.53854073 264.76496262 383.53854073 264.76496262 384.82646179 264.77175903 C388.71293716 264.38606987 391.46404424 263.4897955 393.9621582 260.44311523 C395.63775118 256.65452804 396.25494718 253.02191753 396.85546875 248.94140625 C397.04886589 247.70818886 397.04886589 247.70818886 397.24617004 246.45005798 C397.5158053 244.71692045 397.78024592 242.9829677 398.03979492 241.24829102 C398.43591722 238.60431452 398.84837606 235.9632913 399.26367188 233.32226562 C399.52440219 231.63296111 399.78419897 229.94351219 400.04296875 228.25390625 C400.22571602 227.07708031 400.22571602 227.07708031 400.41215515 225.8764801 C400.52259659 225.13228317 400.63303802 224.38808624 400.74682617 223.62133789 C400.84436691 222.97467667 400.94190765 222.32801544 401.04240417 221.66175842 C401.3053228 218.96348475 401.25 216.24230275 401.25 213.53125 C382.44 213.53125 363.63 213.53125 344.25 213.53125 Z " fill="#B8C3D5" transform="translate(46.75,79.46875)"/>
<path d="M0 0 C0.40992188 0.77085937 0.81984375 1.54171875 1.2421875 2.3359375 C1.78101563 3.33882813 2.31984375 4.34171875 2.875 5.375 C3.67550781 6.87160156 3.67550781 6.87160156 4.4921875 8.3984375 C5.8820138 11.05348395 5.8820138 11.05348395 8 13 C11.38493874 13.56022505 14.61133241 13.52260296 18 13 C21.92071002 9.69834946 23.84886156 4.61121698 26 0 C31.92069964 1.61473627 36.09492553 5.97934138 39.30078125 11.0625 C43.49422031 19.11390299 44.17272319 27.27708781 41.875 36.0625 C38.66471234 45.60459928 32.8864423 50.57972147 24 55 C16.48674541 57.5044182 6.46564075 57.25940619 -0.6875 53.8125 C-4.33448042 51.63528928 -7.26570293 49.28115648 -10 46 C-10.44085938 45.47535156 -10.88171875 44.95070313 -11.3359375 44.41015625 C-16.54095492 37.77601555 -17.91966001 30.3193859 -17 22 C-15.32102947 14.59782334 -9.06949868 0 0 0 Z " fill="#536882" transform="translate(387,424)"/>
<path d="M0 0 C0.40992188 0.77085937 0.81984375 1.54171875 1.2421875 2.3359375 C1.78101563 3.33882813 2.31984375 4.34171875 2.875 5.375 C3.67550781 6.87160156 3.67550781 6.87160156 4.4921875 8.3984375 C5.8820138 11.05348395 5.8820138 11.05348395 8 13 C11.38493874 13.56022505 14.61133241 13.52260296 18 13 C21.92071002 9.69834946 23.84886156 4.61121698 26 0 C31.92069964 1.61473627 36.09492553 5.97934138 39.30078125 11.0625 C43.49422031 19.11390299 44.17272319 27.27708781 41.875 36.0625 C38.66471234 45.60459928 32.8864423 50.57972147 24 55 C16.48674541 57.5044182 6.46564075 57.25940619 -0.6875 53.8125 C-4.33448042 51.63528928 -7.26570293 49.28115648 -10 46 C-10.44085938 45.47535156 -10.88171875 44.95070313 -11.3359375 44.41015625 C-16.54095492 37.77601555 -17.91966001 30.3193859 -17 22 C-15.32102947 14.59782334 -9.06949868 0 0 0 Z " fill="#536882" transform="translate(187,424)"/>
<path d="M0 0 C1.05026367 -0.0038269 2.10052734 -0.00765381 3.18261719 -0.01159668 C5.40170247 -0.01431696 7.62081974 -0.00694777 9.83984375 0.00976562 C13.23770595 0.03117255 16.63345361 0.00996675 20.03125 -0.015625 C22.18750467 -0.01298175 24.34375802 -0.00785682 26.5 0 C27.51674805 -0.00809692 28.53349609 -0.01619385 29.58105469 -0.02453613 C36.52625116 0.06785789 36.52625116 0.06785789 39.88867188 2.22070312 C41.54159437 5.02616555 41.76596356 6.78178865 41.78125 10.03125 C41.78898437 11.6090625 41.78898437 11.6090625 41.796875 13.21875 C41.78140625 14.311875 41.7659375 15.405 41.75 16.53125 C41.76546875 17.624375 41.7809375 18.7175 41.796875 19.84375 C41.79171875 20.895625 41.7865625 21.9475 41.78125 23.03125 C41.77673828 23.9903125 41.77222656 24.949375 41.76757812 25.9375 C41.25 28.53125 41.25 28.53125 39.88867188 30.84179688 C35.66335839 33.54712342 31.4133696 33.10162786 26.5 33.0625 C24.92460449 33.06824036 24.92460449 33.06824036 23.31738281 33.07409668 C21.09829753 33.07681696 18.87918026 33.06944777 16.66015625 33.05273438 C13.26229405 33.03132745 9.86654639 33.05253325 6.46875 33.078125 C4.31249533 33.07548175 2.15624198 33.07035682 0 33.0625 C-1.01674805 33.07059692 -2.03349609 33.07869385 -3.08105469 33.08703613 C-10.02625116 32.99464211 -10.02625116 32.99464211 -13.38867188 30.84179688 C-15.04159437 28.03633445 -15.26596356 26.28071135 -15.28125 23.03125 C-15.28640625 21.979375 -15.2915625 20.9275 -15.296875 19.84375 C-15.28140625 18.750625 -15.2659375 17.6575 -15.25 16.53125 C-15.26546875 15.438125 -15.2809375 14.345 -15.296875 13.21875 C-15.28914063 11.6409375 -15.28914063 11.6409375 -15.28125 10.03125 C-15.27673828 9.0721875 -15.27222656 8.113125 -15.26757812 7.125 C-14.75 4.53125 -14.75 4.53125 -13.38867188 2.22070312 C-9.16335839 -0.48462342 -4.9133696 -0.03912786 0 0 Z " fill="#E16676" transform="translate(46.75,79.46875)"/>
<path d="M0 0 C17.16 0 34.32 0 52 0 C35.51891892 34.79339339 35.51891892 34.79339339 31 38 C28.6953125 38.50390625 28.6953125 38.50390625 26.125 38.5625 C25.28195312 38.60503906 24.43890625 38.64757812 23.5703125 38.69140625 C19.36398744 37.55991759 17.13992496 33.86411664 14.9420166 30.2698822 C13.92591663 28.42038058 12.960545 26.55284329 12.01171875 24.66796875 C11.66365677 23.99075272 11.31559479 23.31353668 10.95698547 22.61579895 C10.2300819 21.19822596 9.50674541 19.77881855 8.78686523 18.35766602 C7.67996527 16.17262632 6.56265862 13.99316337 5.44335938 11.81445312 C4.7363791 10.43259851 4.02997752 9.05044763 3.32421875 7.66796875 C2.98992355 7.0138652 2.65562836 6.35976166 2.311203 5.68583679 C0 1.11802493 0 1.11802493 0 0 Z " fill="#9CAAC3" transform="translate(374,400)"/>
<path d="M0 0 C17.16 0 34.32 0 52 0 C35.51891892 34.79339339 35.51891892 34.79339339 31 38 C28.6953125 38.50390625 28.6953125 38.50390625 26.125 38.5625 C25.28195313 38.60503906 24.43890625 38.64757812 23.5703125 38.69140625 C19.36398744 37.55991759 17.13992496 33.86411664 14.9420166 30.2698822 C13.92591663 28.42038058 12.960545 26.55284329 12.01171875 24.66796875 C11.66365677 23.99075272 11.31559479 23.31353668 10.95698547 22.61579895 C10.2300819 21.19822596 9.50674541 19.77881855 8.78686523 18.35766602 C7.67996527 16.17262632 6.56265862 13.99316337 5.44335938 11.81445312 C4.7363791 10.43259851 4.02997752 9.05044763 3.32421875 7.66796875 C2.98992355 7.0138652 2.65562836 6.35976166 2.311203 5.68583679 C0 1.11802493 0 1.11802493 0 0 Z " fill="#9CAAC3" transform="translate(174,400)"/>
<path d="M0 0 C2.66053508 2.66053508 2.78483954 4.27055195 3 8 C0.80027296 13.89165101 -3.2687322 17.67195936 -7.66015625 21.98828125 C-8.77867226 23.1039875 -8.77867226 23.1039875 -9.91978455 24.24223328 C-11.49062596 25.80637368 -13.06505051 27.36692287 -14.64282227 28.92407227 C-17.06466916 31.31464115 -19.47556751 33.71583117 -21.88476562 36.11914062 C-23.41343894 37.63864841 -24.94271499 39.15755012 -26.47265625 40.67578125 C-27.19663101 41.39550613 -27.92060577 42.11523102 -28.66651917 42.85676575 C-29.33739059 43.51802963 -30.00826202 44.17929352 -30.69946289 44.8605957 C-31.2899794 45.44428421 -31.88049591 46.02797272 -32.48890686 46.62934875 C-35.42500172 49.29256122 -38.11782082 49.34764358 -42.0234375 49.26953125 C-44 49 -44 49 -46.5 47.5 C-48.20021527 44.66630788 -48.76130414 42.41317443 -48.55102539 39.09912109 C-46.32905926 30.63458199 -34.44660925 22.22454543 -28.35644531 16.11621094 C-26.36580615 14.11576083 -24.38608478 12.10488651 -22.40625 10.09375 C-21.13347087 8.81444882 -19.86005569 7.53578005 -18.5859375 6.2578125 C-17.99936371 5.65889191 -17.41278992 5.05997131 -16.80844116 4.44290161 C-11.22762697 -1.10787732 -7.80235817 -2.9442861 0 0 Z " fill="#D2DCE5" transform="translate(406,65)"/>
<path d="M0 0 C2.1086478 1.95894657 4.12521649 3.98132204 6.1277771 6.0486145 C6.86779465 6.79333511 7.60781219 7.53805573 8.37025452 8.30534363 C10.72196572 10.67833447 13.05545147 13.06841475 15.38949585 15.45877075 C16.97758775 17.06337661 18.56676948 18.66690463 20.15707397 20.26931763 C23.05767467 23.20382507 25.95772158 26.13876132 28.8399353 29.09133911 C29.41838699 29.68265121 29.99683868 30.27396332 30.59281921 30.88319397 C33.03525325 33.57889365 34.04211532 35.25219238 34.51449585 38.89627075 C34.07699585 42.52127075 34.07699585 42.52127075 32.01449585 45.45877075 C29.07699585 47.52127075 29.07699585 47.52127075 25.76449585 48.27127075 C16.23757023 46.33359096 7.92248425 34.55289596 1.19320679 27.82278442 C-0.80888606 25.82290085 -2.81887839 23.83118306 -4.82925415 21.83963013 C-6.10838822 20.56342659 -7.38705121 19.28675067 -8.66519165 18.009552 C-9.26411224 17.41781693 -9.86303284 16.82608185 -10.48010254 16.21641541 C-11.31204636 15.37985664 -11.31204636 15.37985664 -12.16079712 14.52639771 C-12.64740814 14.0412117 -13.13401917 13.5560257 -13.63537598 13.05613708 C-16.25314712 9.93572633 -16.95232688 8.07840263 -16.73550415 3.95877075 C-15.64242861 -0.66577961 -15.64242861 -0.66577961 -12.92300415 -2.47872925 C-8.44667824 -4.55702342 -3.70933226 -2.85235895 0 0 Z " fill="#D2DBE4" transform="translate(215.92300415039063,66.47872924804688)"/>
<path d="M0 0 C0.66 -0.0103125 1.32 -0.020625 2 -0.03125 C4.9192339 0.7441715 6.09362068 2.18867521 8 4.5 C8.50793457 7.08007812 8.50793457 7.08007812 8.51757812 10.03125 C8.53018677 11.13919922 8.54279541 12.24714844 8.55578613 13.38867188 C8.54768921 14.58041016 8.53959229 15.77214844 8.53125 17 C8.5350769 18.22783203 8.53890381 19.45566406 8.54284668 20.72070312 C8.54556842 23.31641459 8.53818911 25.91215336 8.52148438 28.5078125 C8.50008075 32.48499599 8.52127963 36.46037282 8.546875 40.4375 C8.54423177 42.95833733 8.53910691 45.47917353 8.53125 48 C8.53934692 49.19173828 8.54744385 50.38347656 8.55578613 51.61132812 C8.54317749 52.71927734 8.53056885 53.82722656 8.51757812 54.96875 C8.51280457 56.42958008 8.51280457 56.42958008 8.50793457 57.91992188 C7.85796634 61.22146681 6.58462403 62.41577655 4 64.5 C2 65.03125 2 65.03125 0 65 C-0.66 65.0103125 -1.32 65.020625 -2 65.03125 C-4.9192339 64.2558285 -6.09362068 62.81132479 -8 60.5 C-8.50793457 57.91992188 -8.50793457 57.91992188 -8.51757812 54.96875 C-8.53018677 53.86080078 -8.54279541 52.75285156 -8.55578613 51.61132812 C-8.54768921 50.41958984 -8.53959229 49.22785156 -8.53125 48 C-8.5350769 46.77216797 -8.53890381 45.54433594 -8.54284668 44.27929688 C-8.54556842 41.68358541 -8.53818911 39.08784664 -8.52148438 36.4921875 C-8.50008075 32.51500401 -8.52127963 28.53962718 -8.546875 24.5625 C-8.54423177 22.04166267 -8.53910691 19.52082647 -8.53125 17 C-8.53934692 15.80826172 -8.54744385 14.61652344 -8.55578613 13.38867188 C-8.54317749 12.28072266 -8.53056885 11.17277344 -8.51757812 10.03125 C-8.51439575 9.05736328 -8.51121338 8.08347656 -8.50793457 7.08007812 C-7.60624909 2.49992327 -4.66382617 -0.07287228 0 0 Z " fill="#D2DBE4" transform="translate(304,23.5)"/>
</svg>
